<?xml version="1.0" encoding="utf-8"?>
<!-- Generator: Adobe Illustrator 23.0.0, SVG Export Plug-In . SVG Version: 6.00 Build 0)  -->
<svg version="1.1" id="Layer_1" xmlns="http://www.w3.org/2000/svg" xmlns:xlink="http://www.w3.org/1999/xlink" x="0px" y="0px"
	 viewBox="0 0 347.29 72.77" style="enable-background:new 0 0 347.29 72.77;" xml:space="preserve">
<style type="text/css">
	.st0{fill:#D24A43;}
	.st1{fill:#002C3D;}
</style>
<g>
	<path class="st0" d="M52.09,43.7c-1.22,0.7-0.67,0.36-3.11,1.74c-15.49,10.2-3.28,28.43,0.18,27c-10.24,5.1-49.05-50.67,7.85-53.96
		C82.83,17.01,72.65,34.57,52.09,43.7z"/>
	<path class="st0" d="M50.84,58.85c-0.59,0.34-0.31,0.19-1.48,0.86c-7.44,4.9-1.87,13.5-0.2,12.82
		c-5.33,2.19-23.27-24.36,3.77-25.93C65.34,45.88,60.72,54.46,50.84,58.85z"/>
	<g>
		<path class="st1" d="M42.8,18.83C35.99,5.67,28.39-1.57,23.26,0.29c-5.41,1.96-6.42,13.2-2.63,28.72
			C6.29,36.06-1.67,44.05,0.3,49.46c1.88,5.17,12.24,6.32,26.71,3.1C21.96,39.55,23.11,24.56,42.8,18.83z"/>
	</g>
	<g>
		<g>
			<path class="st1" d="M102.02,52.24h21.67c4.61,0,8.37-3.53,8.37-7.86V42.9c0-4.26-3.55-7.71-8.07-7.86l-0.15-0.01H109.2
				c-1.27,0-2.3-0.97-2.3-2.16v-1.42c0-1.19,1.03-2.17,2.3-2.17h21.23v-5.7H109.2c-4.61,0-8.37,3.53-8.37,7.86v1.42
				c0,4.34,3.75,7.87,8.37,7.87h14.49c1.27,0,2.3,0.97,2.3,2.17v1.48c0,1.19-1.03,2.16-2.3,2.16h-21.67V52.24z"/>
		</g>
		<g>
			<g>
				<path class="st1" d="M139.24,52.24h6.07V23.58h-6.06L139.24,52.24z"/>
			</g>
		</g>
		<g>
			<g>
				<path class="st1" d="M305.34,52.24h6.07V23.58h-6.06L305.34,52.24z"/>
			</g>
		</g>
		<g>
			<path class="st1" d="M224.09,52.23h6.07l0-20.77c0-4.34-3.75-7.87-8.37-7.87h-30.23v28.64h6.03V29.29h10.1l0.01,22.93h6.05V29.29
				h8.04c1.27,0,2.3,0.97,2.3,2.17L224.09,52.23z"/>
		</g>
		<g>
			<path class="st1" d="M265.91,31.45c0-4.34-3.76-7.86-8.37-7.86h-19.26v5.7h19.26c1.27,0,2.31,0.97,2.31,2.16l0,3.58h-15.29
				c-4.61,0-8.37,3.53-8.37,7.87v1.46c0,4.34,3.75,7.87,8.37,7.87h21.33L265.91,31.45z M259.83,46.53L259.83,46.53h-15.28
				c-1.27,0-2.31-0.97-2.31-2.17V42.9c0-1.19,1.03-2.17,2.31-2.17h15.29L259.83,46.53z"/>
		</g>
		<g>
			<path class="st1" d="M347.29,31.45c0-4.34-3.76-7.86-8.37-7.86h-19.26v5.7h19.26c1.27,0,2.31,0.97,2.31,2.16l0,3.58h-15.29
				c-4.61,0-8.37,3.53-8.37,7.87v1.46c0,4.34,3.75,7.87,8.37,7.87h21.33L347.29,31.45z M341.21,46.52L341.21,46.52h-15.28
				c-1.27,0-2.31-0.97-2.31-2.17V42.9c0-1.19,1.03-2.17,2.31-2.17h15.29L341.21,46.52z"/>
		</g>
		<g>
			<path class="st1" d="M153.49,44.38c0,4.34,3.75,7.87,8.37,7.87h21.36V35.05h-15.96v5.7h9.86v5.79h-15.26
				c-1.27,0-2.31-0.97-2.31-2.16l-0.01-12.92c0-1.19,1.04-2.17,2.31-2.17h21.3v-5.7h-21.3c-4.62,0-8.37,3.53-8.37,7.87L153.49,44.38
				z"/>
		</g>
		<polygon class="st1" points="294.28,23.58 285,45.5 275.71,23.57 269.97,23.59 282.11,52.22 282.15,52.22 287.85,52.22 
			287.89,52.22 300.03,23.59 		"/>
	</g>
</g>
</svg>
